<svg width="64" height="64" viewBox="0 0 64 64" fill="none" xmlns="http://www.w3.org/2000/svg">
<path d="M18.3438 28.0361H27.905V40.0124H18.3438V28.0361Z" fill="#F0D4C9"/>
<path fill-rule="evenodd" clip-rule="evenodd" d="M23.1213 37.9766L27.9025 32.6729C33.0537 37.4404 44.2425 33.6829 44.2425 43.4291V58.3379H2V43.4291C2 33.6816 13.19 37.4391 18.34 32.6729L23.1213 37.9766Z" fill="#C4E4FF"/>
<path fill-rule="evenodd" clip-rule="evenodd" d="M23.1178 37.9766L25.9941 41.3016L24.3191 43.9053L25.9778 58.3391H20.2578L22.0978 43.9103L20.3466 41.1803L23.1178 37.9766Z" fill="#2AB7DD"/>
<path fill-rule="evenodd" clip-rule="evenodd" d="M23.125 37.9776L27.905 43.5026L29.9725 34.0501C29.2175 33.6876 28.5188 33.2413 27.9062 32.6751L23.125 37.9788V37.9776Z" fill="#2AB7DD"/>
<path fill-rule="evenodd" clip-rule="evenodd" d="M29.4063 47.9482C28.9225 47.9482 28.5312 47.557 28.5312 47.0732C28.5312 46.5895 28.9225 46.1982 29.4063 46.1982H36.0988C36.5825 46.1982 36.9738 46.5895 36.9738 47.0732C36.9738 47.557 36.5825 47.9482 36.0988 47.9482H29.4063Z" fill="#545D85"/>
<path fill-rule="evenodd" clip-rule="evenodd" d="M16.8331 46.1982C17.3169 46.1982 17.7081 46.5895 17.7081 47.0732C17.7081 47.557 17.3169 47.9482 16.8331 47.9482H10.1406C9.65688 47.9482 9.26562 47.557 9.26562 47.0732C9.26562 46.5895 9.65688 46.1982 10.1406 46.1982H16.8331Z" fill="#545D85"/>
<path fill-rule="evenodd" clip-rule="evenodd" d="M7.95312 50.1797C7.95312 49.6959 8.34438 49.3047 8.82812 49.3047C9.31187 49.3047 9.70312 49.6959 9.70312 50.1797V58.3384H7.95312V50.1797Z" fill="#545D85"/>
<path fill-rule="evenodd" clip-rule="evenodd" d="M14.5747 22.5561H31.6684C32.9584 20.7974 33.7209 18.6261 33.7209 16.2774C33.7209 10.4149 28.9759 5.66113 23.1222 5.66113C17.2684 5.66113 12.5234 10.4136 12.5234 16.2774C12.5234 18.6274 13.2859 20.7986 14.5759 22.5561H14.5747Z" fill="#545D85"/>
<path fill-rule="evenodd" clip-rule="evenodd" d="M22.6759 10.3341C21.5359 13.8541 18.3147 16.4341 14.4659 16.6191C14.1784 17.5053 14.0234 14.6941 14.0234 19.4328C14.0234 24.1716 18.2984 30.1728 23.1184 30.1728C27.9384 30.1728 32.2134 25.1766 32.2134 19.4328C32.2134 13.6891 28.2009 10.0678 22.6747 10.3341H22.6759Z" fill="#FFE8DB"/>
<path d="M51.2959 27.9004H44.3797C42.854 27.9004 41.6172 29.1372 41.6172 30.6629V35.9666C41.6172 37.4923 42.854 38.7291 44.3797 38.7291H51.2959C52.8216 38.7291 54.0584 37.4923 54.0584 35.9666V30.6629C54.0584 29.1372 52.8216 27.9004 51.2959 27.9004Z" fill="white"/>
<path fill-rule="evenodd" clip-rule="evenodd" d="M44.3797 27.0254H51.2972C52.2984 27.0254 53.2084 27.4341 53.8672 28.0929C54.5259 28.7516 54.9347 29.6616 54.9347 30.6629V33.9054H53.1847V30.6629C53.1847 30.1454 52.9722 29.6729 52.6297 29.3304C52.2872 28.9879 51.8159 28.7754 51.2972 28.7754H44.3797C43.8622 28.7754 43.3897 28.9879 43.0472 29.3304C42.7047 29.6729 42.4922 30.1441 42.4922 30.6629V33.9054H40.7422V30.6629C40.7422 29.6616 41.1509 28.7516 41.8097 28.0929C42.4684 27.4341 43.3784 27.0254 44.3797 27.0254Z" fill="#545D85"/>
<path d="M59.8569 33.9033H35.8144C35.1661 33.9033 34.6406 34.4288 34.6406 35.0771V57.1646C34.6406 57.8128 35.1661 58.3383 35.8144 58.3383H59.8569C60.5051 58.3383 61.0306 57.8128 61.0306 57.1646V35.0771C61.0306 34.4288 60.5051 33.9033 59.8569 33.9033Z" fill="#8A91B3"/>
<path fill-rule="evenodd" clip-rule="evenodd" d="M34.2459 33.9033H61.4384C61.7497 33.9033 62.0034 34.1621 62.0034 34.4783V41.7458C62.0034 48.6083 33.6797 46.4546 33.6797 41.7458V34.4783C33.6797 34.1621 33.9347 33.9033 34.2447 33.9033H34.2459Z" fill="#545D85"/>
<path d="M50.2097 43.501H45.3972C44.7938 43.501 44.3047 43.9901 44.3047 44.5935V47.5722C44.3047 48.1756 44.7938 48.6647 45.3972 48.6647H50.2097C50.8131 48.6647 51.3022 48.1756 51.3022 47.5722V44.5935C51.3022 43.9901 50.8131 43.501 50.2097 43.501Z" fill="#FAEFE8"/>
<path fill-rule="evenodd" clip-rule="evenodd" d="M18.3397 32.6738L23.1209 37.9776C19.9334 34.4417 18.3397 32.6738 18.3397 32.6738ZM23.1209 37.9776L18.3409 43.5026L16.2734 34.0501C17.0284 33.6876 17.7272 33.2413 18.3397 32.6751L23.1209 37.9788V37.9776Z" fill="#2AB7DD"/>
</svg>
