<svg width="6" height="11" viewBox="0 0 6 11" fill="none" xmlns="http://www.w3.org/2000/svg">
<path fill-rule="evenodd" clip-rule="evenodd" d="M1.04674 5.4357C2.44481 3.85007 3.81129 2.30225 5.14615 0.793606C5.21602 0.710555 5.25498 0.600316 5.25498 0.485691C5.25498 0.371066 5.21602 0.260826 5.14615 0.177776C4.9571 -0.0600335 4.65804 -0.0394142 4.52187 0.122791C3.13838 1.69123 1.69107 3.33047 0.179927 5.04118C0.0601782 5.15253 0 5.28449 0 5.4357C0 5.58759 0.0601782 5.72299 0.179927 5.84259L4.72855 10.8641C4.8158 10.9548 4.93092 11.0035 5.04943 10.9998C5.16794 10.9961 5.28049 10.9402 5.36315 10.8441C5.58077 10.5974 5.49688 10.3541 5.39841 10.2386C3.94557 8.64006 2.49542 7.03908 1.04674 5.4357Z" fill="#222222"/>
</svg>
