<svg width="24" height="24" viewBox="0 0 24 24" fill="none" xmlns="http://www.w3.org/2000/svg">
<rect width="24" height="24" fill="#222222"/>
<path d="M19.1495 11.5748C19.1495 7.94274 16.2068 5 12.5748 5C8.94274 5 6 7.94274 6 11.5748C6 14.8563 8.4043 17.5764 11.5475 18.07V13.4754H9.87726V11.5748H11.5475V10.1262C11.5475 8.47853 12.5284 7.5684 14.0308 7.5684C14.7503 7.5684 15.5027 7.69671 15.5027 7.69671V9.3139H14.6734C13.8568 9.3139 13.6021 9.82079 13.6021 10.3407V11.5748H15.4255L15.1339 13.4754H13.6021V18.07C16.7452 17.5764 19.1495 14.8563 19.1495 11.5748Z" fill="white"/>
</svg>
