<svg width="14" height="12" viewBox="0 0 14 12" fill="none" xmlns="http://www.w3.org/2000/svg">
<path d="M10.125 0C8.83438 0 7.70438 0.555131 7 1.49348C6.29562 0.555131 5.16563 0 3.875 0C2.84764 0.00115823 1.86269 0.409884 1.13624 1.13651C0.409788 1.86313 0.00115796 2.84831 0 3.87591C0 8.25195 6.48688 11.794 6.76312 11.9403C6.83594 11.9795 6.91732 12 7 12C7.08268 12 7.16406 11.9795 7.23687 11.9403C7.51312 11.794 14 8.25195 14 3.87591C13.9988 2.84831 13.5902 1.86313 12.8638 1.13651C12.1373 0.409884 11.1524 0.00115823 10.125 0ZM7 10.9276C5.85875 10.2624 1 7.23233 1 3.87591C1.00099 3.11354 1.30421 2.38268 1.84316 1.8436C2.38212 1.30452 3.11281 1.00123 3.875 1.00024C5.09062 1.00024 6.11125 1.64789 6.5375 2.68813C6.57517 2.77986 6.63925 2.85832 6.7216 2.91353C6.80396 2.96874 6.90086 3 7 3C7.09914 3 7.19604 2.96874 7.2784 2.91353C7.36075 2.85832 7.42483 2.77986 7.4625 2.68813C7.88875 1.64601 8.90938 1.00024 10.125 1.00024C10.8872 1.00123 11.6179 1.30452 12.1568 1.8436C12.6958 2.38268 12.999 3.11354 13 3.87591C13 7.22733 8.14 10.2618 7 10.9276Z" fill="#222222"/>
</svg>
