<svg width="24" height="24" viewBox="0 0 24 24" fill="none" xmlns="http://www.w3.org/2000/svg">
<rect width="24" height="24" fill="#222222"/>
<path d="M11.9427 8.89412C10.2567 8.89412 8.89677 10.254 8.89677 11.94C8.89677 13.626 10.2567 14.9859 11.9427 14.9859C13.6286 14.9859 14.9885 13.626 14.9885 11.94C14.9885 10.254 13.6286 8.89412 11.9427 8.89412ZM11.9427 13.9202C10.8531 13.9202 9.96243 13.0322 9.96243 11.94C9.96243 10.8478 10.8505 9.95978 11.9427 9.95978C13.0348 9.95978 13.9229 10.8478 13.9229 11.94C13.9229 13.0322 13.0322 13.9202 11.9427 13.9202ZM15.8236 8.76953C15.8236 9.16451 15.5055 9.47997 15.1131 9.47997C14.7181 9.47997 14.4027 9.16186 14.4027 8.76953C14.4027 8.37719 14.7208 8.05908 15.1131 8.05908C15.5055 8.05908 15.8236 8.37719 15.8236 8.76953ZM17.8409 9.49057C17.7958 8.5389 17.5785 7.69591 16.8813 7.00138C16.1867 6.30684 15.3438 6.08947 14.3921 6.04175C13.4112 5.98608 10.4714 5.98608 9.49057 6.04175C8.54155 6.08682 7.69856 6.30419 7.00138 6.99873C6.30419 7.69326 6.08947 8.53625 6.04175 9.48792C5.98608 10.4688 5.98608 13.4086 6.04175 14.3894C6.08682 15.3411 6.30419 16.1841 7.00138 16.8786C7.69856 17.5732 8.5389 17.7905 9.49057 17.8382C10.4714 17.8939 13.4112 17.8939 14.3921 17.8382C15.3438 17.7932 16.1867 17.5758 16.8813 16.8786C17.5758 16.1841 17.7932 15.3411 17.8409 14.3894C17.8966 13.4086 17.8966 10.4714 17.8409 9.49057ZM16.5738 15.4418C16.367 15.9614 15.9667 16.3617 15.4445 16.5711C14.6625 16.8813 12.8068 16.8097 11.9427 16.8097C11.0785 16.8097 9.22018 16.8786 8.44081 16.5711C7.92124 16.3643 7.52095 15.9641 7.31153 15.4418C7.00138 14.6598 7.07295 12.8042 7.07295 11.94C7.07295 11.0758 7.00403 9.21753 7.31153 8.43816C7.5183 7.91859 7.91859 7.5183 8.44081 7.30888C9.22283 6.99873 11.0785 7.0703 11.9427 7.0703C12.8068 7.0703 14.6651 7.00138 15.4445 7.30888C15.9641 7.51565 16.3643 7.91594 16.5738 8.43816C16.8839 9.22018 16.8124 11.0758 16.8124 11.94C16.8124 12.8042 16.8839 14.6625 16.5738 15.4418Z" fill="white"/>
</svg>
