<svg width="40" height="40" viewBox="0 0 40 40" fill="none" xmlns="http://www.w3.org/2000/svg">
<path d="M19.9974 23.3337C22.7588 23.3337 24.9974 21.0951 24.9974 18.3337C24.9974 15.5722 22.7588 13.3337 19.9974 13.3337C17.236 13.3337 14.9974 15.5722 14.9974 18.3337C14.9974 21.0951 17.236 23.3337 19.9974 23.3337ZM19.9974 23.3337C15.395 23.3337 11.6641 27.0646 11.6641 31.667M19.9974 23.3337C24.5998 23.3337 28.3307 27.0646 28.3307 31.667M14.9974 38.3337H24.9974C29.6645 38.3337 31.998 38.3337 33.7806 37.4254C35.3487 36.6264 36.6235 35.3516 37.4224 33.7836C38.3307 32.001 38.3307 29.6674 38.3307 25.0003V15.0003C38.3307 10.3332 38.3307 7.99967 37.4224 6.21707C36.6235 4.64905 35.3487 3.37422 33.7806 2.57527C31.998 1.66699 29.6645 1.66699 24.9974 1.66699H14.9974C10.3303 1.66699 7.99674 1.66699 6.21414 2.57527C4.64612 3.37422 3.37129 4.64905 2.57234 6.21707C1.66406 7.99967 1.66406 10.3332 1.66406 15.0003V25.0003C1.66406 29.6674 1.66406 32.001 2.57234 33.7836C3.37129 35.3516 4.64612 36.6264 6.21414 37.4254C7.99674 38.3337 10.3303 38.3337 14.9974 38.3337ZM13.6641 31.667H26.3307C28.1976 31.667 29.131 31.667 29.844 31.3037C30.4712 30.9841 30.9812 30.4742 31.3007 29.847C31.6641 29.1339 31.6641 28.2005 31.6641 26.3337V13.667C31.6641 11.8001 31.6641 10.8667 31.3007 10.1537C30.9812 9.52648 30.4712 9.01655 29.844 8.69697C29.131 8.33366 28.1976 8.33366 26.3307 8.33366H13.6641C11.7972 8.33366 10.8638 8.33366 10.1508 8.69697C9.52355 9.01655 9.01362 9.52648 8.69404 10.1537C8.33073 10.8667 8.33073 11.8001 8.33073 13.667V26.3337C8.33073 28.2005 8.33073 29.1339 8.69404 29.847C9.01362 30.4742 9.52355 30.9841 10.1508 31.3037C10.8638 31.667 11.7972 31.667 13.6641 31.667Z" stroke="#222222" stroke-width="2"/>
</svg>
