<svg width="16" height="16" viewBox="0 0 16 16" fill="none" xmlns="http://www.w3.org/2000/svg">
<path d="M7.9974 2.66699V0.666992L5.33073 3.33366L7.9974 6.00033V4.00033C10.2041 4.00033 11.9974 5.79366 11.9974 8.00033C11.9974 8.67366 11.8307 9.31366 11.5307 9.86699L12.5041 10.8403C13.0241 10.0203 13.3307 9.04699 13.3307 8.00033C13.3307 5.05366 10.9441 2.66699 7.9974 2.66699ZM7.9974 12.0003C5.79073 12.0003 3.9974 10.207 3.9974 8.00033C3.9974 7.32699 4.16406 6.68699 4.46406 6.13366L3.49073 5.16033C2.97073 5.98033 2.66406 6.95366 2.66406 8.00033C2.66406 10.947 5.05073 13.3337 7.9974 13.3337V15.3337L10.6641 12.667L7.9974 10.0003V12.0003Z" fill="#626262"/>
</svg>
