<svg width="24" height="24" viewBox="0 0 24 24" fill="none" xmlns="http://www.w3.org/2000/svg">
<rect width="24" height="24" fill="#222222"/>
<path d="M17.3783 9.56694C17.3863 9.67959 17.3863 9.79227 17.3863 9.90492C17.3863 13.3409 14.7711 17.3 9.99125 17.3C8.51867 17.3 7.15071 16.8735 6 16.1332C6.20923 16.1573 6.41038 16.1654 6.62765 16.1654C7.84271 16.1654 8.96125 15.755 9.85445 15.0549C8.71179 15.0308 7.75421 14.2824 7.42429 13.2524C7.58524 13.2765 7.74616 13.2926 7.91516 13.2926C8.14852 13.2926 8.38189 13.2604 8.59914 13.2041C7.40821 12.9627 6.51498 11.9166 6.51498 10.6533V10.6211C6.86098 10.8142 7.26336 10.9349 7.68981 10.951C6.98973 10.4843 6.53108 9.68764 6.53108 8.78639C6.53108 8.30358 6.65981 7.86101 6.88513 7.47475C8.16459 9.05194 10.0878 10.0819 12.2443 10.1946C12.2041 10.0015 12.18 9.80032 12.18 9.59914C12.18 8.16678 13.3387 7 14.7791 7C15.5275 7 16.2034 7.31383 16.6782 7.82078C17.2656 7.70813 17.8289 7.49085 18.3278 7.19313C18.1346 7.79666 17.7243 8.30361 17.1851 8.62546C17.7082 8.56916 18.2151 8.42429 18.6818 8.22313C18.3278 8.73811 17.8852 9.19677 17.3783 9.56694Z" fill="white"/>
</svg>
