<svg width="30" height="31" viewBox="0 0 30 31" fill="none" xmlns="http://www.w3.org/2000/svg">
<g id="fluent:checkmark-16-regular">
<path id="Vector" d="M25.9924 7.1971C26.0769 7.28671 26.1429 7.39209 26.1866 7.50722C26.2304 7.62235 26.251 7.74497 26.2473 7.86807C26.2437 7.99118 26.2158 8.11236 26.1653 8.22469C26.1148 8.33701 26.0426 8.43829 25.953 8.52273L11.0842 22.5365C10.8701 22.7381 10.5856 22.8478 10.2916 22.8422C9.99753 22.8366 9.71738 22.7161 9.51111 22.5065L4.48611 17.4065C4.31616 17.2285 4.22298 16.9909 4.22667 16.7449C4.23036 16.4988 4.33064 16.2641 4.50585 16.0914C4.68107 15.9186 4.91719 15.8217 5.16325 15.8215C5.40931 15.8212 5.6456 15.9178 5.82111 16.0902L10.3324 20.669L24.6667 7.15773C24.7563 7.07324 24.8617 7.00723 24.9769 6.96349C25.092 6.91974 25.2146 6.8991 25.3377 6.90276C25.4608 6.90641 25.582 6.93429 25.6943 6.9848C25.8067 7.0353 25.9079 7.10744 25.9924 7.1971Z" fill="#222222"/>
</g>
</svg>
