<svg width="31" height="29" viewBox="0 0 31 29" fill="none" xmlns="http://www.w3.org/2000/svg">
<g clip-path="url(#clip0_1587_5735)">
<path d="M16.25 12.2439C16.883 12.2439 17.51 12.2495 18.152 12.4651C18.7715 12.6723 19.457 13.0965 20.126 14.0331C20.1807 14.1096 20.2509 14.1753 20.3328 14.2264C20.4147 14.2776 20.5065 14.3132 20.6031 14.3312C20.6997 14.3492 20.7991 14.3493 20.8958 14.3314C20.9924 14.3135 21.0843 14.2781 21.1663 14.227C21.2482 14.176 21.3186 14.1104 21.3734 14.034C21.4282 13.9576 21.4663 13.8719 21.4856 13.7818C21.5049 13.6916 21.5049 13.5988 21.4858 13.5086C21.4667 13.4184 21.4287 13.3326 21.374 13.2561C20.5415 12.0913 19.604 11.4641 18.659 11.1477C17.7575 10.8439 16.895 10.8439 16.28 10.8439H16.25C16.0511 10.8439 15.8603 10.9177 15.7197 11.049C15.579 11.1802 15.5 11.3583 15.5 11.5439C15.5 11.7296 15.579 11.9076 15.7197 12.0389C15.8603 12.1702 16.0511 12.2439 16.25 12.2439ZM12.5 7.34395V8.44994C8.1635 9.65394 5 13.4045 5 17.8439C5 18.0296 5.07902 18.2076 5.21967 18.3389C5.36032 18.4702 5.55109 18.5439 5.75 18.5439H25.25C25.4489 18.5439 25.6397 18.4702 25.7803 18.3389C25.921 18.2076 26 18.0296 26 17.8439C25.9999 15.7332 25.2699 13.6789 23.9186 11.9864C22.5674 10.2939 20.667 9.05365 18.5 8.44994V7.34395C18.5 6.60134 18.1839 5.88915 17.6213 5.36405C17.0587 4.83894 16.2957 4.54395 15.5 4.54395C14.7044 4.54395 13.9413 4.83894 13.3787 5.36405C12.8161 5.88915 12.5 6.60134 12.5 7.34395ZM15.5 5.94395C15.8978 5.94395 16.2794 6.09144 16.5607 6.354C16.842 6.61655 17 6.97264 17 7.34395V8.14195C16.0051 8.00908 14.9949 8.00908 14 8.14195V7.34395C14 6.97264 14.158 6.61655 14.4393 6.354C14.7206 6.09144 15.1022 5.94395 15.5 5.94395ZM15.5 9.44394C17.7573 9.44364 19.9324 10.2351 21.5939 11.6613C23.2553 13.0875 24.2819 15.0444 24.47 17.1439H6.53C6.71811 15.0444 7.74468 13.0875 9.40615 11.6613C11.0676 10.2351 13.2427 9.44364 15.5 9.44394ZM5.75 19.9439C5.15326 19.9439 4.58097 20.1652 4.15901 20.559C3.73705 20.9528 3.5 21.487 3.5 22.0439C3.5 22.6009 3.73705 23.135 4.15901 23.5289C4.58097 23.9227 5.15326 24.1439 5.75 24.1439H25.25C25.8467 24.1439 26.419 23.9227 26.841 23.5289C27.2629 23.135 27.5 22.6009 27.5 22.0439C27.5 21.487 27.2629 20.9528 26.841 20.559C26.419 20.1652 25.8467 19.9439 25.25 19.9439H5.75ZM5 22.0439C5 21.8583 5.07902 21.6802 5.21967 21.549C5.36032 21.4177 5.55109 21.3439 5.75 21.3439H25.25C25.4489 21.3439 25.6397 21.4177 25.7803 21.549C25.921 21.6802 26 21.8583 26 22.0439C26 22.2296 25.921 22.4076 25.7803 22.5389C25.6397 22.6702 25.4489 22.7439 25.25 22.7439H5.75C5.55109 22.7439 5.36032 22.6702 5.21967 22.5389C5.07902 22.4076 5 22.2296 5 22.0439Z" fill="#222222"/>
<rect width="1.1667" height="2.49994" rx="0.58335" transform="matrix(0.0210576 -0.999778 0.999832 0.0183445 6.82031 9.04785)" fill="#222222"/>
<rect width="1.1667" height="2.49994" rx="0.58335" transform="matrix(0.0210576 -0.999778 0.999832 0.0183445 21.8203 9.04785)" fill="#222222"/>
<rect x="14.957" y="0.34375" width="1.25" height="2.33333" rx="0.625" fill="#222222"/>
<rect width="1.19405" height="3.6716" rx="0.597026" transform="matrix(0.593124 0.805111 -0.841603 0.540096 22.2891 2.04102)" fill="#222222"/>
<rect width="1.19405" height="3.6716" rx="0.597026" transform="matrix(-0.593124 0.805111 0.841603 0.540096 8.70703 2.57227)" fill="#222222"/>
</g>
<defs>
<clipPath id="clip0_1587_5735">
<rect width="30" height="28" fill="white" transform="translate(0.5 0.34375)"/>
</clipPath>
</defs>
</svg>
